<?xml version="1.0" encoding="utf-8"?>
<!-- Generator: Adobe Illustrator 15.1.0, SVG Export Plug-In . SVG Version: 6.00 Build 0)  -->
<!DOCTYPE svg PUBLIC "-//W3C//DTD SVG 1.1//EN" "http://www.w3.org/Graphics/SVG/1.1/DTD/svg11.dtd">
<svg version="1.1" id="Layer_1" xmlns="http://www.w3.org/2000/svg" xmlns:xlink="http://www.w3.org/1999/xlink" x="0px" y="0px"
	 width="379.578px" height="127.686px" viewBox="0 0 379.578 127.686" enable-background="new 0 0 379.578 127.686"
	 xml:space="preserve">
<g>
	<defs>
		<rect id="SVGID_1_" width="379.578" height="127.686"/>
	</defs>
	<clipPath id="SVGID_2_">
		<use xlink:href="#SVGID_1_"  overflow="visible"/>
	</clipPath>
	<g clip-path="url(#SVGID_2_)">
		<path d="M39.226,12.012c7.132,0,13.795,1.783,19.144,4.786v9.759c-5.068-3.753-12.012-6.287-19.238-6.287
			c-15.484,0-26.369,11.636-26.369,26.745S23.648,73.76,39.883,73.76c7.507,0,14.17-2.534,19.519-6.851v9.854
			c-5.443,3.472-12.856,5.255-19.988,5.255c-20.645,0-35.566-14.921-35.566-34.815C3.848,27.872,17.924,12.012,39.226,12.012z"/>
		<path d="M69.912,13.044c3.285,0,5.912,2.628,5.912,5.912c0,3.285-2.627,5.912-5.912,5.912c-3.284,0-5.912-2.627-5.912-5.912
			C64,15.672,66.627,13.044,69.912,13.044z M65.689,34.816h8.446v46.17h-8.446V34.816z"/>
		<path d="M86.989,64.939V42.417h-8.54v-7.601h8.54V22.241l8.446-1.408v13.982h13.889v7.601H95.435v20.927
			c0,5.724,0.844,10.979,6.944,10.979c2.44,0,5.161-0.844,6.944-1.971v7.977c-1.877,0.938-5.162,1.689-8.352,1.689
			c-3.378,0-7.507-0.845-10.51-4.316C88.209,75.167,86.989,71.414,86.989,64.939z"/>
		<path d="M115.798,101.631l12.481-25.619l-19.238-41.196h9.384l8.07,17.455c2.158,4.692,4.411,9.666,6.288,13.888h0.188
			c2.064-4.598,4.129-9.196,6.287-13.888l8.071-17.455h8.915l-31.249,66.815H115.798z"/>
		<path d="M160.653,13.044h8.915v59.871h32.094v8.07h-41.009V13.044z"/>
		<path d="M210.482,13.044c3.284,0,5.912,2.628,5.912,5.912c0,3.285-2.628,5.912-5.912,5.912c-3.285,0-5.912-2.627-5.912-5.912
			C204.57,15.672,207.197,13.044,210.482,13.044z M206.259,34.816h8.446v46.17h-8.446V34.816z"/>
		<path d="M218.645,34.816h9.196l8.54,20.833c2.064,5.068,3.941,9.759,5.912,14.827h0.188c2.064-5.255,4.035-10.134,6.193-15.39
			l8.352-20.27h8.821l-19.331,46.17h-8.446L218.645,34.816z"/>
		<path d="M273.917,13.044c3.284,0,5.912,2.628,5.912,5.912c0,3.285-2.628,5.912-5.912,5.912c-3.285,0-5.912-2.627-5.912-5.912
			C268.005,15.672,270.632,13.044,273.917,13.044z M269.693,34.816h8.446v46.17h-8.446V34.816z"/>
		<path d="M287.429,34.816h8.446v5.818l0.188,0.094c4.035-4.035,9.666-6.944,16.141-6.944c5.067,0,9.385,1.783,12.293,5.067
			c2.534,2.909,3.848,6.475,3.848,13.607v28.528h-8.445V54.053c0-4.786-0.657-7.601-2.158-9.384
			c-1.877-2.252-4.88-3.003-7.414-3.003c-5.255,0-11.167,3.285-14.451,7.695v31.625h-8.446V34.816z"/>
		<path d="M340.449,90.182c4.41,2.909,9.478,4.786,14.639,4.786c8.821,0,14.733-5.255,14.733-13.982v-3.378l-0.188-0.094
			c-3.191,2.158-7.695,3.565-12.575,3.565c-12.574,0-22.615-9.478-22.615-23.085c0-13.044,8.914-24.211,23.929-24.211
			c4.786,0,8.634,1.126,11.73,2.627l8.164-1.408v45.795c0,13.513-9.009,21.865-23.179,21.865c-5.631,0-10.792-1.502-14.639-3.473
			V90.182z M358.278,73.667c4.224,0,8.728-1.502,11.543-3.754V44.481c-2.909-1.783-7.414-3.19-11.637-3.19
			c-9.29,0-15.202,7.132-15.202,16.141C342.982,66.722,349.176,73.667,358.278,73.667z"/>
	</g>
	<g clip-path="url(#SVGID_2_)">
		<path d="M176.542,99.739h4.461v16.416h8.896v3.9h-13.357V99.739z"/>
		<path d="M196.403,109.897c0-5.921,4.574-10.467,10.607-10.467c6.032,0,10.606,4.546,10.606,10.467s-4.574,10.467-10.606,10.467
			C200.978,120.364,196.403,115.818,196.403,109.897z M213.155,109.897c0-3.592-2.638-6.426-6.145-6.426
			c-3.508,0-6.146,2.834-6.146,6.426s2.638,6.426,6.146,6.426C210.518,116.323,213.155,113.489,213.155,109.897z"/>
		<path d="M234.139,111.862c-1.319-1.769-2.554-3.48-3.816-5.248l-0.057,0.028c0.028,1.937,0.057,3.9,0.057,5.864v7.549h-4.294
			V99.739h4.21l6.089,8.194c1.319,1.768,2.554,3.479,3.816,5.247l0.056-0.028c-0.027-1.936-0.056-3.9-0.056-5.864v-7.549h4.293
			v20.316h-4.209L234.139,111.862z"/>
		<path d="M253.745,99.739h5.697c3.619,0,6.426,0.59,8.53,2.049c2.497,1.739,3.9,4.602,3.9,8.081c0,3.199-1.207,5.921-3.367,7.689
			c-2.077,1.684-4.995,2.497-9.261,2.497h-5.5V99.739z M259.442,116.155c2.89,0,4.742-0.505,6.005-1.6
			c1.206-1.038,1.964-2.666,1.964-4.687c0-2.132-0.842-3.928-2.357-4.994c-1.431-1.011-3.367-1.235-5.64-1.235h-1.207v12.516
			H259.442z"/>
		<path d="M279.274,109.897c0-5.921,4.574-10.467,10.607-10.467c6.032,0,10.606,4.546,10.606,10.467s-4.574,10.467-10.606,10.467
			C283.849,120.364,279.274,115.818,279.274,109.897z M296.026,109.897c0-3.592-2.638-6.426-6.145-6.426
			c-3.508,0-6.146,2.834-6.146,6.426s2.638,6.426,6.146,6.426C293.389,116.323,296.026,113.489,296.026,109.897z"/>
		<path d="M317.009,111.862c-1.319-1.769-2.554-3.48-3.816-5.248l-0.057,0.028c0.028,1.937,0.057,3.9,0.057,5.864v7.549h-4.294
			V99.739h4.21l6.089,8.194c1.318,1.768,2.554,3.479,3.816,5.247l0.056-0.028c-0.027-1.936-0.056-3.9-0.056-5.864v-7.549h4.293
			v20.316h-4.209L317.009,111.862z"/>
	</g>
	<path clip-path="url(#SVGID_2_)" fill="none" stroke="#F26D23" stroke-width="5" stroke-miterlimit="10" d="M152.801,120.055
		c-5.826,0-10.243-4.392-10.243-10.108c0-5.718,4.417-10.107,10.243-10.107s10.244,4.39,10.244,10.107
		C163.045,115.664,158.627,120.055,152.801,120.055z"/>
</g>
</svg>
